# xmcd CD database file
#
# Track frame offsets:
#	150
#	17003
#	29757
#	42100
#	56263
#	67344
#	79514
#	91994
#	103486
#	114238
#	126377
#	147840
#	159311
#	170488
#
# Disc length: 2433 seconds
#
# Revision: 0
# Processed by: cddbd v1.5.1PL0 Copyright (c) Steve Scherf et al.
# Submitted via: CDex 1.50beta10
#
DISCID=bc097f0e
DTITLE=Rita Lee - Bossa 'n Beatles
DYEAR=2001
DGENRE=Bossa Nova
TTITLE0=A Hard Day's Night
TTITLE1=With A Little Help From My Friends
TTITLE2=Pra Voce Eu Digo Sim (If I Fell)
TTITLE3=All My Loving
TTITLE4=Minha Vida (In My Life)
TTITLE5=She Loves You
TTITLE6=Michelle
TTITLE7=Aqui,Ali.Em Qualquer Lugar (Here There And Everywhere)
TTITLE8=I Want To Hold Your Hand
TTITLE9=Tudo Por Amor (Can't Buy My Love)
TTITLE10=Lucy In The Sky With Diamonds
TTITLE11=Here,There And Everywhere
TTITLE12=In My Life
TTITLE13=If I Fell
EXTD=YEAR: 2001
EXTT0=
EXTT1=
EXTT2=
EXTT3=
EXTT4=
EXTT5=
EXTT6=
EXTT7=
EXTT8=
EXTT9=
EXTT10=
EXTT11=
EXTT12=
EXTT13=
PLAYORDER=
